<svg version="1.1" xmlns="http://www.w3.org/2000/svg" xmlns:xlink="http://www.w3.org/1999/xlink" x="0px" y="0px"
	 viewBox="0 0 89.7 89.8" style="enable-background:new 0 0 89.7 89.8;" xml:space="preserve">
	<g>
		<circle class="st0" cx="44.8" cy="44.8" r="44.8"/>
		<g class="st1">
			<polyline class="st2" points="38.3,8.7 33.2,16.2 40.4,20.5 45.9,13.6 38.4,8.5"/>
			<line class="st2" x1="49.8" y1="69.7" x2="40.6" y2="20.4"/>
			<polyline class="st2" points="32.8,25.4 42.5,31.5 49.4,22.3"/>
			<polyline class="st2" points="39.6,45.8 44.3,38.6 51.3,43.1"/>
			<polyline class="st2" points="81.5,38.3 74,33.2 69.7,40.4 76.5,45.9 81.7,38.4"/>
			<line class="st2" x1="20.5" y1="49.8" x2="69.6" y2="40.7"/>
			<polyline class="st2" points="64.7,32.8 58.7,42.5 67.9,49.4"/>
			<polyline class="st2" points="44.4,39.6 51.6,44.2 47.1,51.2"/>
			<polyline class="st2" points="51.8,81.7 57,74 49.8,69.7 44.3,76.5 51.8,81.7"/>
			<path class="st2" d="M38.1,8.6"/>
			<polyline class="st2" points="57.4,64.7 47.7,58.7 40.8,67.9"/>
			<polyline class="st2" points="50.6,44.4 45.9,51.6 38.9,47.1"/>
			<polyline class="st2" points="8.5,51.8 16.2,57 20.5,49.8 13.7,44.3 8.5,51.8"/>
			<polyline class="st2" points="25.5,57.4 31.5,47.6 22.3,40.8"/>
			<polyline class="st2" points="45.8,50.6 38.6,45.9 43.1,38.9"/>
			<polyline class="st2" points="14.5,24 16.2,33.1 24.4,31 23.4,22.3 14.5,24"/>
			<line class="st2" x1="65.8" y1="59.2" x2="24.5" y2="30.8"/>
			<polyline class="st2" points="22.5,39.9 33.7,37.3 32.1,25.9"/>
			<polyline class="st2" points="41.8,49.5 39.9,41.1 48,39.3"/>
			<polyline class="st2" points="66.1,14.8 66.2,14.5 57.1,16.2 59.2,24.4 67.9,23.4 66.2,14.5"/>
			<line class="st2" x1="31" y1="65.8" x2="59.1" y2="24.9"/>
			<polyline class="st2" points="50.3,22.5 52.9,33.6 64.2,32"/>
			<polyline class="st2" points="40.7,41.7 49.1,39.9 50.9,48"/>
			<polyline class="st2" points="75.7,66.2 74,57.1 65.8,59.2 66.8,67.9 75.7,66.2"/>
			<path class="st2" d="M14.3,24.3"/>
			<polyline class="st2" points="67.7,50.3 56.6,52.9 58.1,64.2"/>
			<polyline class="st2" points="48.5,40.7 50.3,49.1 42.2,50.9"/>
			<polyline class="st2" points="24.4,75.1 24,75.7 33.1,73.9 31,65.8 22.3,66.8 24,75.7"/>
			<polyline class="st2" points="39.9,67.7 37.3,56.5 26,58.1"/>
			<polyline class="st2" points="49.5,48.4 41.1,50.3 39.3,42.2"/>
		</g>
		<text transform="matrix(1 0 0 1 24.708 68.7118)" class="st4 st5 st6">3</text>
	</g>
</svg>