<svg version="1.1" xmlns="http://www.w3.org/2000/svg" xmlns:xlink="http://www.w3.org/1999/xlink" x="0px" y="0px"
	 viewBox="0 0 86.3 86.6" style="enable-background:new 0 0 86.3 86.6;" xml:space="preserve">
	<g>
		<circle class="st0" cx="43.2" cy="43.2" r="43.2"/>
		<g class="st1">
			<g>
				<line class="st2" x1="43.2" y1="8.7" x2="43.2" y2="78.7"/>
				<polyline class="st2" points="32.9,10 43.3,20.5 54,10.2"/>
				<polyline class="st2" points="32.2,21.9 43.2,32.9 54.2,22"/>
			</g>
			<g>
				<line class="st2" x1="18.4" y1="18.9" x2="67.9" y2="68.4"/>
				<polyline class="st2" points="12.1,27.2 26.8,27.2 27.1,12.3"/>
				<polyline class="st2" points="20,36 35.6,36 35.6,20.6"/>
			</g>
			<g>
				<line class="st2" x1="8.2" y1="43.7" x2="78.2" y2="43.7"/>
				<polyline class="st2" points="9.5,54 19.9,43.6 9.6,32.9"/>
				<polyline class="st2" points="21.4,54.7 32.4,43.6 21.5,32.7"/>
			</g>
			<g>
				<line class="st2" x1="18.4" y1="68.4" x2="67.9" y2="18.9"/>
				<polyline class="st2" points="26.6,74.8 26.6,60 11.8,59.7"/>
				<polyline class="st2" points="35.5,66.9 35.5,51.3 20.1,51.3"/>
			</g>
			<g>
				<line class="st2" x1="43.1" y1="78.7" x2="43.1" y2="8.7"/>
				<polyline class="st2" points="53.5,77.4 43,66.9 32.3,77.2"/>
				<polyline class="st2" points="54.2,65.5 43.1,54.5 32.2,65.4"/>
			</g>
			<g>
				<line class="st2" x1="67.9" y1="68.5" x2="18.4" y2="19"/>
				<polyline class="st2" points="74.3,60.2 59.5,60.2 59.2,75.1"/>
				<polyline class="st2" points="66.4,51.4 50.7,51.4 50.7,66.8"/>
			</g>
			<g>
				<line class="st2" x1="78.2" y1="43.7" x2="8.2" y2="43.7"/>
				<polyline class="st2" points="76.9,33.4 66.4,43.8 76.7,54.5"/>
				<polyline class="st2" points="65,32.7 53.9,43.8 64.8,54.7"/>
			</g>
			<g>
				<line class="st2" x1="67.9" y1="19" x2="18.4" y2="68.5"/>
				<polyline class="st2" points="59.7,12.6 59.7,27.4 74.5,27.7"/>
				<polyline class="st2" points="50.8,20.5 50.8,36.1 66.3,36.1"/>
			</g>
		</g>
		<g>
			<text transform="matrix(1 0 0 1 6.9537 67.7576)" class="st4 st5 st6">1</text>
			<text transform="matrix(1 0 0 1 36.1729 67.7576)" class="st4 st5 st6">0</text>
		</g>
	</g>
</svg>