<svg version="1.1" xmlns="http://www.w3.org/2000/svg" xmlns:xlink="http://www.w3.org/1999/xlink" x="0px" y="0px"
	 viewBox="0 0 89.3 89.7" style="enable-background:new 0 0 89.3 89.7;" xml:space="preserve">
	<g>
		<circle class="st0" cx="44.6" cy="44.6" r="44.6"/>
		<g class="st1">
			<polyline class="st2" points="38.1,8.5 33,16 40.2,20.3 45.7,13.5 38.2,8.3"/>
			<line class="st2" x1="49.6" y1="69.5" x2="40.4" y2="20.2"/>
			<polyline class="st2" points="32.6,25.3 42.4,31.3 49.2,22.1"/>
			<polyline class="st2" points="39.4,45.6 44.1,38.4 51.1,42.9"/>
			<polyline class="st2" points="81.3,38.1 73.8,33 69.5,40.2 76.4,45.7 81.5,38.2"/>
			<line class="st2" x1="20.3" y1="49.6" x2="69.4" y2="40.5"/>
			<polyline class="st2" points="64.6,32.6 58.5,42.3 67.7,49.2"/>
			<polyline class="st2" points="44.2,39.4 51.4,44.1 46.9,51.1"/>
			<polyline class="st2" points="51.6,81.5 56.8,73.8 49.6,69.5 44.1,76.3 51.6,81.5"/>
			<path class="st2" d="M37.9,8.4"/>
			<polyline class="st2" points="57.2,64.5 47.5,58.5 40.6,67.7"/>
			<polyline class="st2" points="50.4,44.2 45.8,51.4 38.8,46.9"/>
			<polyline class="st2" points="8.3,51.6 16,56.8 20.3,49.6 13.5,44.1 8.3,51.6"/>
			<polyline class="st2" points="25.3,57.2 31.3,47.5 22.2,40.6"/>
			<polyline class="st2" points="45.6,50.4 38.4,45.7 42.9,38.7"/>
			<polyline class="st2" points="14.3,23.8 16.1,32.9 24.2,30.8 23.2,22.1 14.3,23.8"/>
			<line class="st2" x1="65.6" y1="59" x2="24.3" y2="30.6"/>
			<polyline class="st2" points="22.3,39.7 33.5,37.1 31.9,25."/>
			<polyline class="st2" points="41.6,49.3 39.7,40.9 47.8,39.1"/>
			<polyline class="st2" points="65.9,14.6 66,14.3 56.9,16 59,24.2 67.7,23.2 66,14.3"/>
			<line class="st2" x1="30.8" y1="65.6" x2="58.9" y2="24.7"/>
			<polyline class="st2" points="50.1,22.3 52.7,33.5 64.1,31.9"/>
			<polyline class="st2" points="40.5,41.6 48.9,39.7 50.7,47.8"/>
			<polyline class="st2" points="75.5,66 73.8,56.9 65.6,59 66.6,67.7 75.5,66"/>
			<path class="st2" d="M14.1,24.1"/>
			<polyline class="st2" points="67.5,50.1 56.4,52.7 58,64"/>
			<polyline class="st2" points="48.3,40.5 50.1,48.9 42,50.7"/>
			<polyline class="st2" points="24.2,74.9 23.8,75.5 32.9,73.8 30.8,65.6 22.1,66.6 23.8,75.5"/>
			<polyline class="st2" points="39.7,67.5 37.1,56.3 25.8,57.9"/>
			<polyline class="st2" points="49.3,48.2 40.9,50.1 39.1,42"/>
		</g>
		<text transform="matrix(1 0 0 1 25.1797 70.8741)" class="st4 st5 st6">8</text>
	</g>
</svg>