<svg version="1.1" xmlns="http://www.w3.org/2000/svg" xmlns:xlink="http://www.w3.org/1999/xlink" x="0px" y="0px"
	 viewBox="0 0 85.7 87.3" style="enable-background:new 0 0 85.7 87.3;" xml:space="preserve">
	<g>
		<circle class="st0" cx="42.8" cy="42.8" r="42.8"/>
		<g class="st1">
			<g>
				<line class="st2" x1="42.9" y1="8.4" x2="42.9" y2="78.4"/>
				<polyline class="st2" points="32.5,9.7 43,20.1 53.7,9.9"/>
				<polyline class="st2" points="31.9,21.6 42.9,32.6 53.8,21.7"/>
			</g>
			<g>
				<line class="st2" x1="18.1" y1="18.6" x2="67.6" y2="68.1"/>
				<polyline class="st2" points="11.7,26.9 26.5,26.9 26.8,12"/>
				<polyline class="st2" points="19.7,35.7 35.3,35.7 35.3,20.3"/>
			</g>
			<g>
				<line class="st2" x1="7.9" y1="43.4" x2="77.9" y2="43.4"/>
				<polyline class="st2" points="9.2,53.7 19.6,43.3 9.3,32.6"/>
				<polyline class="st2" points="21,54.4 32.1,43.3 21.2,32.4"/>
			</g>
			<g>
				<line class="st2" x1="18.1" y1="68.1" x2="67.6" y2="18.6"/>
				<polyline class="st2" points="26.3,74.5 26.3,59.7 11.5,59.4"/>
				<polyline class="st2" points="35.2,66.6 35.2,51 19.8,51"/>
			</g>
			<g>
				<line class="st2" x1="42.8" y1="78.4" x2="42.8" y2="8.4"/>
				<polyline class="st2" points="53.2,77.1 42.7,66.6 32,76.9"/>
				<polyline class="st2" points="53.8,65.2 42.8,54.1 31.9,65.1"/>
			</g>
			<g>
				<line class="st2" x1="67.6" y1="68.2" x2="18.1" y2="18.7"/>
				<polyline class="st2" points="74,59.9 59.2,59.9 58.9,74.8"/>
				<polyline class="st2" points="66.1,51 50.4,51 50.4,66.5"/>
			</g>
			<g>
				<line class="st2" x1="77.9" y1="43.4" x2="7.9" y2="43.4"/>
				<polyline class="st2" points="76.5,33.1 66.1,43.5 76.4,54.2"/>
				<polyline class="st2" points="64.7,32.4 53.6,43.5 64.5,54.4"/>
			</g>
			<g>
				<line class="st2" x1="67.6" y1="18.7" x2="18.1" y2="68.2"/>
				<polyline class="st2" points="59.4,12.3 59.4,27 74.2,27.3"/>
				<polyline class="st2" points="50.5,20.2 50.5,35.8 66,35.8"/>
			</g>
		</g>
		<text transform="matrix(1 0 0 1 24.3983 68.4436)" class="st4 st5 st6">5</text>
	</g>
</svg>