<svg version="1.1" xmlns="http://www.w3.org/2000/svg" xmlns:xlink="http://www.w3.org/1999/xlink" x="0px" y="0px"
	 viewBox="0 0 86.4 86.4" style="enable-background:new 0 0 86.4 86.4;" xml:space="preserve">
	<g>
		<g>
			<circle class="st0" cx="43.2" cy="43.2" r="43.2"/>
			<g class="st1">
				<g>
					<polyline class="st2" points="44.8,29.9 47.4,5.3 44,8 46.4,10.9 42,14.6 45.7,21.3 41,25.1"/>
					<polyline class="st2" points="45.7,21.3 41,25.1 44.8,29.9 47.4,5.3 50.1,8.6 47.1,11 50.8,15.5 45.7,21.3 49.6,26"/>
					<polyline class="st2" points="45.7,21.3 49.6,26 44.8,29.9"/>
					<line class="st2" x1="45.1" y1="28.4" x2="39.6" y2="80.7"/>
				</g>
				<g>
					<polyline class="st2" points="53.7,34.7 72.9,19.1 68.6,18.7 68.2,22.4 62.5,21.8 60.4,29.2 54.3,28.6"/>
					<polyline class="st2" points="60.4,29.2 54.3,28.6 53.7,34.7 72.9,19.1 72.4,23.4 68.7,23 68.1,28.7 60.4,29.2 59.7,35.3"/>
					<polyline class="st2" points="60.4,29.2 59.7,35.3 53.7,34.7"/>
					<line class="st2" x1="54.9" y1="33.8" x2="14.1" y2="66.9"/>
				</g>
				<g>
					<polyline class="st2" points="56.5,44.3 81.1,46.9 78.4,43.6 75.5,46 71.8,41.5 65.1,45.2 61.3,40.5"/>
					<polyline class="st2" points="65.1,45.2 61.3,40.5 56.5,44.3 81.1,46.9 77.8,49.6 75.4,46.7 70.9,50.3 65.1,45.2 60.4,49.1"/>
					<polyline class="st2" points="65.1,45.2 60.4,49.1 56.5,44.3"/>
					<line class="st2" x1="58" y1="44.6" x2="5.7" y2="39.1"/>
				</g>
				<g>
					<polyline class="st2" points="51.7,53.2 67.3,72.4 67.8,68.1 64,67.7 64.6,62 57.2,59.9 57.8,53.8"/>
					<polyline class="st2" points="57.2,59.9 57.8,53.8 51.7,53.2 67.3,72.4 63,72 63.4,68.2 57.7,67.6 57.2,59.9 51.1,59.3"/>
					<polyline class="st2" points="57.2,59.9 51.1,59.3 51.7,53.2"/>
					<line class="st2" x1="52.6" y1="54.4" x2="19.5" y2="13.6"/>
				</g>
				<g>
					<polyline class="st2" points="42.1,56 39.5,80.7 42.8,78 40.4,75 44.9,71.4 41.2,64.6 45.9,60.8"/>
					<polyline class="st2" points="41.2,64.6 45.9,60.8 42.1,56 39.5,80.7 36.8,77.3 39.7,74.9 36.1,70.4 41.2,64.6 37.3,59.9"/>
					<polyline class="st2" points="41.2,64.6 37.3,59.9 42.1,56"/>
					<line class="st2" x1="41.8" y1="57.5" x2="47.3" y2="5.3"/>
				</g>
				<g>
					<polyline class="st2" points="33.2,51.2 14,66.8 18.3,67.3 18.7,63.5 24.4,64.1 26.5,56.7 32.6,57.3"/>
					<polyline class="st2" points="26.5,56.7 32.6,57.3 33.2,51.2 14,66.8 14.4,62.6 18.2,63 18.8,57.2 26.5,56.7 27.1,50.6"/>
					<polyline class="st2" points="26.5,56.7 27.1,50.6 33.2,51.2"/>
					<line class="st2" x1="32" y1="52.1" x2="72.8" y2="19"/>
				</g>
				<g>
					<polyline class="st2" points="30.4,41.6 5.7,39 8.4,42.4 11.4,40 15,44.4 21.8,40.7 25.6,45.4"/>
					<polyline class="st2" points="21.8,40.7 25.6,45.4 30.4,41.6 5.7,39 9.1,36.3 11.5,39.3 16,35.6 21.8,40.7 26.5,36.8"/>
					<polyline class="st2" points="21.8,40.7 26.5,36.8 30.4,41.6"/>
					<line class="st2" x1="28.9" y1="41.3" x2="81.1" y2="46.8"/>
				</g>
				<g>
					<polyline class="st2" points="35.2,32.7 19.6,13.5 19.1,17.8 22.9,18.2 22.3,23.9 29.7,26 29.1,32.1"/>
					<polyline class="st2" points="29.7,26 29.1,32.1 35.2,32.7 19.6,13.5 23.8,14 23.4,17.7 29.2,18.3 29.7,26 35.8,26.7"/>
					<polyline class="st2" points="29.7,26 35.8,26.7 35.2,32.7"/>
					<line class="st2" x1="34.3" y1="31.5" x2="67.4" y2="72.3"/>
				</g>
			</g>
		</g>
		<text transform="matrix(1 0 0 1 25.4843 66.4942)" class="st4 st5 st6">9</text>
	</g>
</svg>