<svg version="1.1" xmlns="http://www.w3.org/2000/svg" xmlns:xlink="http://www.w3.org/1999/xlink" x="0px" y="0px"
	 viewBox="0 0 86.4 86.4" style="enable-background:new 0 0 86.4 86.4;" xml:space="preserve">
	<g>
		<g>
			<circle class="st0" cx="43.2" cy="43.2" r="43.2"/>
			<g class="st1">
				<polyline class="st2" points="43.3,80.3 43.3,12.6 37.2,6.4 49.5,6.5 43.4,12.4"/>
				<polyline class="st3" points="37.4,14.5 43.3,20.5 49.3,14.6"/>
				<polyline class="st2" points="43.2,23.9 38.7,28.4 43.2,33"/>
				<polyline class="st2" points="43.2,33.2 47.9,28.5 43.2,23.7"/>
				<polyline class="st2" points="17.2,69.5 65.1,21.6 65.1,12.9 73.7,21.6 65.3,21.5"/>
				<polyline class="st3" points="59.5,18.8 59.5,27.2 67.9,27.2"/>
				<polyline class="st2" points="56.9,29.5 50.6,29.5 50.6,35.9"/>
				<polyline class="st2" points="50.4,36.1 57.1,36.1 57.1,29.4"/>
				<polyline class="st2" points="6.4,43.4 74.1,43.4 80.2,37.2 80.2,49.5 74.3,43.5"/>
				<polyline class="st3" points="72.1,37.4 66.2,43.4 72.1,49.3"/>
				<polyline class="st2" points="62.7,43.2 58.2,38.7 53.7,43.2"/>
				<polyline class="st2" points="53.5,43.3 58.2,48 62.9,43.2"/>
				<polyline class="st2" points="17.2,17.3 65,65.1 73.8,65.1 65,73.8 65.1,65.3"/>
				<polyline class="st3" points="67.9,59.5 59.5,59.5 59.5,67.9"/>
				<polyline class="st2" points="57.1,57 57.1,50.6 50.7,50.6"/>
				<polyline class="st2" points="50.6,50.5 50.6,57.1 57.3,57.1"/>
				<polyline class="st2" points="43.3,6.4 43.3,74.1 49.5,80.3 37.2,80.2 43.2,74.3"/>
				<polyline class="st3" points="49.2,72.2 43.3,66.2 37.4,72.1"/>
				<polyline class="st2" points="43.5,62.8 48,58.3 43.4,53.7"/>
				<polyline class="st2" points="43.4,53.5 38.7,58.2 43.4,63"/>
				<polyline class="st2" points="69.4,17.2 21.6,65.1 21.6,73.8 12.9,65.1 21.3,65.2"/>
				<polyline class="st3" points="27.1,67.9 27.1,59.5 18.8,59.5"/>
				<polyline class="st2" points="29.7,57.2 36.1,57.2 36.1,50.8"/>
				<polyline class="st2" points="36.2,50.6 29.5,50.6 29.5,57.3"/>
				<polyline class="st2" points="80.2,43.3 12.6,43.3 6.4,49.5 6.4,37.2 12.4,43.2"/>
				<polyline class="st3" points="14.5,49.3 20.4,43.3 14.5,37.4"/>
				<polyline class="st2" points="23.9,43.5 28.4,48 32.9,43.5"/>
				<polyline class="st2" points="33.1,43.4 28.4,38.7 23.7,43.5"/>
				<polyline class="st2" points="69.4,69.4 21.6,21.6 12.9,21.6 21.6,12.9 21.5,21.4"/>
				<polyline class="st3" points="18.8,27.2 27.2,27.2 27.2,18.8"/>
				<polyline class="st2" points="29.5,29.7 29.5,36.1 35.9,36.1"/>
				<polyline class="st2" points="36.1,36.2 36.1,29.6 29.4,29.6"/>
			</g>
		</g>
		<text transform="matrix(1 0 0 1 22.4356 64.7788)" class="st4 st5 st6">6</text>
	</g>
</svg>