<svg version="1.1" xmlns="http://www.w3.org/2000/svg" xmlns:xlink="http://www.w3.org/1999/xlink" x="0px" y="0px"
	 viewBox="0 0 89.4 89.4" style="enable-background:new 0 0 89.4 89.4;" xml:space="preserve">
	<g>
		<circle class="st0" cx="44.7" cy="44.7" r="44.7"/>
		<g class="st1">
			<line class="st2" x1="44.9" y1="12.4" x2="44.9" y2="76.8"/>
			<polygon class="st3" points="44.8,7.9 40.2,12.5 49.6,12.5"/>
			<polyline class="st2" points="49.5,16.5 47.2,19.5 42.5,19.5 40.2,16.5"/>
			<polyline class="st2" points="49.5,29 47.2,24.3 42.5,24.3 40.2,29"/>
			<polyline class="st2" points="49.9,33.4 45,44.4 40,33.5"/>
			<line class="st2" x1="77.1" y1="44.7" x2="12.7" y2="44.7"/>
			<polygon class="st3" points="81.8,44.5 77.2,39.9 77.2,49.3 "/>
			<polyline class="st2" points="73.1,49.2 70.2,46.9 70.2,42.2 73.1,39.9"/>
			<polyline class="st2" points="60.6,49.2 65.3,46.9 65.3,42.2 60.6,39.9"/>
			<polyline class="st2" points="56.2,49.6 45.2,44.7 56.1,39.7"/>
			<polygon class="st3" points="45.1,81.5 49.7,76.9 40.3,76.9"/>
			<polyline class="st2" points="40.4,72.8 42.7,69.9 47.5,69.9 49.8,72.8"/>
			<polyline class="st2" points="40.4,60.3 42.7,65.1 47.5,65.1 49.8,60.3"/>
			<polyline class="st2" points="40,55.9 45,45 49.9,55.8"/>
			<polygon class="st3" points="19,70.9 25.5,70.9 18.8,64.2"/>
			<polyline class="st2" points="21.8,61.5 25.5,61 28.8,64.4 28.4,68.1"/>
			<polyline class="st2" points="30.6,52.6 28.9,57.6 32.2,61 37.2,59.2"/>
			<line class="st2" x1="21.9" y1="21.5" x2="67.4" y2="67.1"/>
			<polygon class="st3" points="18.3,18.2 18.3,24.7 25,18"/>
			<polyline class="st2" points="27.8,20.9 28.2,24.7 24.9,28 21.2,27.6"/>
			<polyline class="st2" points="36.6,29.8 31.6,28.1 28.3,31.4 30,36.4"/>
			<line class="st2" x1="68.2" y1="21.6" x2="22.7" y2="67.1"/>
			<polygon class="st3" points="71.6,18 65.1,18 71.8,24.7"/>
			<polyline class="st2" points="68.8,27.5 65.1,27.9 61.7,24.6 62.2,20.9"/>
			<polyline class="st2" points="60,36.3 61.7,31.3 58.3,28 53.4,29.7"/>
			<polygon class="st3" points="71.2,70.8 71.2,64.3 64.5,70.9"/>
			<polyline class="st2" points="61.7,68 61.3,64.3 64.6,60.9 68.4,61.4"/>
			<polyline class="st2" points="52.9,59.1 57.9,60.9 61.2,57.5 59.5,52.5"/>
			<polygon class="st3" points="8.2,44.9 12.8,49.4 12.8,40"/>
			<polyline class="st2" points="16.8,40.1 19.8,42.4 19.8,47.2 16.8,49.5"/>
			<polyline class="st2" points="29.3,40.1 24.6,42.4 24.6,47.2 29.3,49.5"/>
			<polyline class="st2" points="33.7,39.7 44.7,44.7 33.8,49.6"/>
		</g>
		<text transform="matrix(1 0 0 1 27.9872 68.2026)" class="st4 st5 st6">7</text>
	</g>
</svg>